g Platform.Uncovered.Folktails
v -0.07744832 0.8388381 0.8163817
v -0.1611505 0.8388381 0.8387848
v -0.1611505 2.384186E-07 0.8387848
v -0.07744832 2.384186E-07 0.8163817
v -0.01619584 0.8388381 0.8776684
v -0.01619584 2.384186E-07 0.8776684
v -0.03864554 0.8388381 0.9613583
v -0.03864554 2.384186E-07 0.9613583
v -0.1223476 2.384186E-07 0.983761
v -0.1223476 0.8388381 0.983761
v -0.1836002 2.384186E-07 0.9224745
v -0.1836002 0.8388381 0.9224745
v -0.1611505 0.8388381 0.8387848
v -0.1611505 2.384186E-07 0.8387848
v -0.8163817 0.8388381 0.9225517
v -0.8387848 0.8388381 0.8388495
v -0.8387848 2.384186E-07 0.8388495
v -0.8163817 2.384186E-07 0.9225517
v -0.8776684 0.8388381 0.9838041
v -0.8776684 2.384186E-07 0.9838041
v -0.9613583 0.8388381 0.9613544
v -0.9613583 2.384186E-07 0.9613544
v -0.983761 2.384186E-07 0.8776523
v -0.983761 0.8388381 0.8776523
v -0.9224745 2.384186E-07 0.8163998
v -0.9224745 0.8388381 0.8163998
v -0.8387848 0.8388381 0.8388495
v -0.8387848 2.384186E-07 0.8388495
v -0.9225516 0.8388381 0.1836182
v -0.8388494 0.8388381 0.1612151
v -0.8388494 2.384186E-07 0.1612151
v -0.9225516 2.384186E-07 0.1836182
v -0.983804 0.8388381 0.1223315
v -0.983804 2.384186E-07 0.1223315
v -0.9613543 0.8388381 0.03864154
v -0.9613543 2.384186E-07 0.03864154
v -0.8776522 2.384186E-07 0.01623893
v -0.8776522 0.8388381 0.01623893
v -0.8163997 2.384186E-07 0.07752541
v -0.8163997 0.8388381 0.07752541
v -0.8388494 0.8388381 0.1612151
v -0.8388494 2.384186E-07 0.1612151
v -0.1836181 0.8388381 0.07744846
v -0.1612151 0.8388381 0.1611507
v -0.1612151 2.384186E-07 0.1611507
v -0.1836181 2.384186E-07 0.07744846
v -0.1223314 0.8388381 0.01619601
v -0.1223314 2.384186E-07 0.01619601
v -0.03864145 0.8388381 0.03864577
v -0.03864145 2.384186E-07 0.03864577
v -0.01623887 2.384186E-07 0.1223479
v -0.01623887 0.8388381 0.1223479
v -0.07752535 2.384186E-07 0.1836004
v -0.07752535 0.8388381 0.1836004
v -0.1612151 0.8388381 0.1611507
v -0.1612151 2.384186E-07 0.1611507
v -0.9613583 0.8388381 0.9613544
v -0.983761 0.8388381 0.8776523
v -0.8999912 0.8571174 0.9000087
v -0.8776684 0.8388381 0.9838041
v -0.9224745 0.8388381 0.8163998
v -0.8163817 0.8388381 0.9225517
v -0.8387848 0.8388381 0.8388495
v -0.9613543 0.8388381 0.03864154
v -0.8776522 0.8388381 0.01623893
v -0.9000086 0.8571174 0.1000087
v -0.983804 0.8388381 0.1223315
v -0.8163997 0.8388381 0.07752541
v -0.9225516 0.8388381 0.1836182
v -0.8388494 0.8388381 0.1612151
v -0.07744832 0.8388381 0.8163817
v -0.01619584 0.8388381 0.8776684
v -0.09999125 0.8571174 0.8999912
v -0.1611505 0.8388381 0.8387848
v -0.03864554 0.8388381 0.9613583
v -0.1836002 0.8388381 0.9224745
v -0.1223476 0.8388381 0.983761
v -0.03864145 0.8388381 0.03864577
v -0.01623887 0.8388381 0.1223479
v -0.1000086 0.8571174 0.09999147
v -0.1223314 0.8388381 0.01619601
v -0.07752535 0.8388381 0.1836004
v -0.1836181 0.8388381 0.07744846
v -0.1612151 0.8388381 0.1611507
vt 0.4476301 0.5014278
vt 0.4914513 0.5014278
vt 0.4914514 0.9983379
vt 0.4476303 0.9983379
vt 0.3661033 0.5014278
vt 0.3661035 0.9983379
vt 0.3253407 0.5014278
vt 0.325341 0.9983379
vt 0.284577 0.9983379
vt 0.2845768 0.5014278
vt 0.2030495 0.9983379
vt 0.2030492 0.5014278
vt 0.1592292 0.5014278
vt 0.1592293 0.9983379
vt 0.4476301 0.5014278
vt 0.4914513 0.5014278
vt 0.4914514 0.9983379
vt 0.4476303 0.9983379
vt 0.3661033 0.5014278
vt 0.3661035 0.9983379
vt 0.3253407 0.5014278
vt 0.325341 0.9983379
vt 0.284577 0.9983379
vt 0.2845768 0.5014278
vt 0.2030495 0.9983379
vt 0.2030492 0.5014278
vt 0.1592292 0.5014278
vt 0.1592293 0.9983379
vt 0.4476301 0.5014278
vt 0.4914513 0.5014278
vt 0.4914514 0.9983379
vt 0.4476303 0.9983379
vt 0.3661033 0.5014278
vt 0.3661035 0.9983379
vt 0.3253407 0.5014278
vt 0.325341 0.9983379
vt 0.284577 0.9983379
vt 0.2845768 0.5014278
vt 0.2030495 0.9983379
vt 0.2030492 0.5014278
vt 0.1592292 0.5014278
vt 0.1592293 0.9983379
vt 0.4476301 0.5014278
vt 0.4914513 0.5014278
vt 0.4914514 0.9983379
vt 0.4476303 0.9983379
vt 0.3661033 0.5014278
vt 0.3661035 0.9983379
vt 0.3253407 0.5014278
vt 0.325341 0.9983379
vt 0.284577 0.9983379
vt 0.2845768 0.5014278
vt 0.2030495 0.9983379
vt 0.2030492 0.5014278
vt 0.1592292 0.5014278
vt 0.1592293 0.9983379
vt 0.7218859 0.2213603
vt 0.7339982 0.1761059
vt 0.688707 0.1881929
vt 0.6766381 0.233498
vt 0.7008629 0.1429888
vt 0.6435026 0.2003812
vt 0.6556151 0.1551266
vt 0.7218838 0.1550337
vt 0.6766291 0.1429215
vt 0.6887166 0.1882127
vt 0.7340215 0.2002816
vt 0.6435124 0.1760567
vt 0.7009047 0.2334169
vt 0.6556501 0.2213044
vt 0.6766377 0.142979
vt 0.6435206 0.1761145
vt 0.6888258 0.1881836
vt 0.7218922 0.1550915
vt 0.6556585 0.2213623
vt 0.73403 0.2003393
vt 0.700913 0.2334746
vt 0.6556562 0.1550359
vt 0.6435441 0.2002905
vt 0.6888353 0.1882033
vt 0.7009043 0.1428982
vt 0.6766793 0.2334075
vt 0.7340396 0.1760152
vt 0.7219272 0.2212697
vn 0.2595679 -0.0005770079 -0.9657246
vn -0.7062948 0.0001293776 -0.7079178
vn -0.7062051 0 -0.7080073
vn 0.2579558 0 -0.9661567
vn 0.9656979 0.00017517 -0.2596684
vn 0.9656944 0 -0.2596811
vn 0.7068045 0.0009852225 0.7074083
vn 0.7062036 0 0.7080089
vn -0.2585794 0 0.96599
vn -0.2586936 -3.032943E-05 0.9659594
vn -0.9658157 0 0.2592295
vn -0.9659448 0.001332469 0.2587447
vn -0.7062948 0.0001293776 -0.7079178
vn -0.7062051 0 -0.7080073
vn 0.9657246 -0.0005770081 0.2595683
vn 0.7079182 0.0001293776 -0.7062944
vn 0.7080078 0 -0.7062048
vn 0.9661567 0 0.2579562
vn 0.2596682 0.0001747887 0.9656979
vn 0.2596809 0 0.9656945
vn -0.7074081 0.0009852225 0.7068047
vn -0.7080086 0 0.7062038
vn -0.96599 0 -0.2585793
vn -0.9659594 -3.032943E-05 -0.2586936
vn -0.259229 0 -0.9658158
vn -0.2587441 0.00133247 -0.9659449
vn 0.7079182 0.0001293776 -0.7062944
vn 0.7080078 0 -0.7062048
vn -0.2595686 -0.0005769416 0.9657245
vn 0.7062944 0.0001293776 0.7079183
vn 0.7062047 0 0.7080078
vn -0.2579564 0 0.9661565
vn -0.9656979 0.00017517 0.2596679
vn -0.9656945 0 0.2596807
vn -0.7068043 0.0009852225 -0.7074084
vn -0.7062034 0 -0.708009
vn 0.2585796 0 -0.9659899
vn 0.258694 -3.052446E-05 -0.9659593
vn 0.9658158 0 -0.2592291
vn 0.9659449 0.001332507 -0.258744
vn 0.7062944 0.0001293776 0.7079183
vn 0.7062047 0 0.7080078
vn -0.9657246 -0.000577008 -0.2595684
vn -0.7079182 0.0001293917 0.7062945
vn -0.7080077 0 0.7062048
vn -0.9661567 0 -0.2579563
vn -0.2596679 0.0001747887 -0.9656979
vn -0.2596806 0 -0.9656945
vn 0.7074088 0.0009852226 -0.706804
vn 0.7080094 0 -0.7062031
vn 0.9659899 0 0.2585799
vn 0.9659593 -3.032943E-05 0.2586941
vn 0.259229 0 0.9658158
vn 0.2587442 0.001332469 0.9659449
vn -0.7079182 0.0001293917 0.7062945
vn -0.7080077 0 0.7062048
vn -0.1463549 0.978316 0.1465539
vn -0.1012903 0.9944864 -0.02714993
vn 0.006998806 0.9999695 0.003490751
vn 0.02608762 0.9945202 0.1012369
vn -0.05376228 0.9785926 -0.1986609
vn 0.199485 0.9784387 0.05351114
vn 0.07351877 0.9945022 -0.07456837
vn -0.1465536 0.978316 -0.1463548
vn 0.02714983 0.9944864 -0.1012904
vn -0.003490914 0.9999695 0.00699901
vn -0.1012368 0.9945202 0.02608803
vn 0.1986603 0.9785927 -0.05376248
vn -0.05351118 0.9784386 0.1994858
vn 0.07456814 0.9945022 0.07351895
vn 0.05351085 0.9784386 -0.1994855
vn 0.1012366 0.9945202 -0.0260879
vn -0.007953679 0.9999684 6.526569E-05
vn -0.0745686 0.9945022 -0.07351892
vn 0.1465535 0.9783161 0.1463548
vn -0.1986609 0.9785926 0.05376232
vn -0.02715025 0.9944864 0.1012903
vn 0.1463556 0.9783159 -0.1465537
vn 0.1012907 0.9944863 0.02715003
vn -0.006998587 0.9999695 -0.003490854
vn -0.02608728 0.9945202 -0.101237
vn 0.05376222 0.9785926 0.1986608
vn -0.199485 0.9784387 -0.05351146
vn -0.07351877 0.9945022 0.07456823
g Platform.Uncovered.Folktails_0
f 3/3/3 2/2/2 1/1/1
f 4/4/4 3/3/3 1/1/1
f 4/4/4 1/1/1 5/5/5
f 6/6/6 4/4/4 5/5/5
f 6/6/6 5/5/5 7/7/7
f 8/8/8 6/6/6 7/7/7
f 9/9/9 8/8/8 7/7/7
f 10/10/10 9/9/9 7/7/7
f 11/11/11 9/9/9 10/10/10
f 12/12/12 11/11/11 10/10/10
f 11/11/11 12/12/12 13/13/13
f 14/14/14 11/11/11 13/13/13
f 17/17/17 16/16/16 15/15/15
f 18/18/18 17/17/17 15/15/15
f 18/18/18 15/15/15 19/19/19
f 20/20/20 18/18/18 19/19/19
f 20/20/20 19/19/19 21/21/21
f 22/22/22 20/20/20 21/21/21
f 23/23/23 22/22/22 21/21/21
f 24/24/24 23/23/23 21/21/21
f 25/25/25 23/23/23 24/24/24
f 26/26/26 25/25/25 24/24/24
f 25/25/25 26/26/26 27/27/27
f 28/28/28 25/25/25 27/27/27
f 31/31/31 30/30/30 29/29/29
f 32/32/32 31/31/31 29/29/29
f 32/32/32 29/29/29 33/33/33
f 34/34/34 32/32/32 33/33/33
f 34/34/34 33/33/33 35/35/35
f 36/36/36 34/34/34 35/35/35
f 37/37/37 36/36/36 35/35/35
f 38/38/38 37/37/37 35/35/35
f 39/39/39 37/37/37 38/38/38
f 40/40/40 39/39/39 38/38/38
f 39/39/39 40/40/40 41/41/41
f 42/42/42 39/39/39 41/41/41
f 45/45/45 44/44/44 43/43/43
f 46/46/46 45/45/45 43/43/43
f 46/46/46 43/43/43 47/47/47
f 48/48/48 46/46/46 47/47/47
f 48/48/48 47/47/47 49/49/49
f 50/50/50 48/48/48 49/49/49
f 51/51/51 50/50/50 49/49/49
f 52/52/52 51/51/51 49/49/49
f 53/53/53 51/51/51 52/52/52
f 54/54/54 53/53/53 52/52/52
f 53/53/53 54/54/54 55/55/55
f 56/56/56 53/53/53 55/55/55
f 59/59/59 58/58/58 57/57/57
f 60/60/60 59/59/59 57/57/57
f 61/61/61 58/58/58 59/59/59
f 59/59/59 60/60/60 62/62/62
f 63/63/63 61/61/61 59/59/59
f 63/63/63 59/59/59 62/62/62
f 66/66/66 65/65/65 64/64/64
f 67/67/67 66/66/66 64/64/64
f 68/68/68 65/65/65 66/66/66
f 66/66/66 67/67/67 69/69/69
f 70/70/70 68/68/68 66/66/66
f 70/70/70 66/66/66 69/69/69
f 73/73/73 72/72/72 71/71/71
f 74/74/74 73/73/73 71/71/71
f 72/72/72 73/73/73 75/75/75
f 74/74/74 76/76/76 73/73/73
f 73/73/73 77/77/77 75/75/75
f 76/76/76 77/77/77 73/73/73
f 80/80/80 79/79/79 78/78/78
f 81/81/81 80/80/80 78/78/78
f 82/82/82 79/79/79 80/80/80
f 80/80/80 81/81/81 83/83/83
f 84/84/84 82/82/82 80/80/80
f 84/84/84 80/80/80 83/83/83
